#N canvas 922 149 278 408 10;
#N canvas 937 121 266 215 NETPD 0;
#N canvas 135 387 450 300 abslist 0;
#X restore 5 47 pd abslist;
#N canvas 1191 114 450 300 someprops 0;
#X restore 6 71 pd someprops;
#X msg 6 19 version 0 1 0;
#X restore 21 78 pd NETPD 2 0;
#N canvas 92 398 139 47 \$1-speak-chat 1;
#X obj 15 -735 tgl 15 0 \$1-speak \$1-speak empty 17 7 0 10 -262144
-1 -1 1 1;
#X text 37 -736 speak!;
#X text 12 -716 (sorry \, OS X only);
#X restore 22 30 pd \$1-speak-chat;
#X obj 21 54 netpd_head \$1 speak-chat;
#X obj 66 266 netpd_f \$1 speak;
#X obj 21 102 r NETPD;
#X obj 21 123 route from;
#X obj 21 145 routeOSC /chat;
#X obj 21 166 routeOSC /msg;
#X obj 21 259 list;
#X obj 21 343 ggee/shell;
#X obj 21 296 spigot 1;
#X msg 21 319 say \$1 says: \$2;
#N canvas 908 378 412 278 filter-connected 0;
#X obj 18 16 inlet;
#X obj 18 214 outlet;
#X obj 18 47 unpack s s;
#X obj 18 161 spigot 1;
#X msg 102 122 0;
#X msg 135 122 1;
#X obj 18 190 pack s s;
#X obj 102 97 select <<<<<<<<<<<<<connected<<<<<<<<<<<<<<<<<;
#X obj 75 73 t s s;
#X connect 0 0 2 0;
#X connect 2 0 3 0;
#X connect 2 1 8 0;
#X connect 3 0 6 0;
#X connect 4 0 3 1;
#X connect 5 0 3 1;
#X connect 6 0 1 0;
#X connect 7 0 4 0;
#X connect 7 1 5 0;
#X connect 8 0 6 1;
#X connect 8 1 7 0;
#X restore 21 190 pd filter-connected;
#N canvas 215 52 655 584 filter-on-socket 0;
#X obj 78 38 inlet;
#X obj 77 385 outlet;
#X obj 78 81 unpack s s;
#X obj 161 149 zexy/symbol2list;
#X obj 77 309 spigot 1;
#X msg 161 269 0;
#X msg 212 270 1;
#X obj 134 125 t s s;
#X obj 77 347 pack s s;
#X obj 161 175 list split 1;
#X obj 161 240 select on;
#X obj 315 181 zexy/list2symbol;
#X obj 407 139 loadbang;
#X msg 408 160 symbol -;
#X connect 0 0 2 0;
#X connect 2 0 4 0;
#X connect 2 1 7 0;
#X connect 3 0 9 0;
#X connect 4 0 8 0;
#X connect 5 0 4 1;
#X connect 6 0 4 1;
#X connect 7 0 8 1;
#X connect 7 1 3 0;
#X connect 8 0 1 0;
#X connect 9 0 10 0;
#X connect 10 0 5 0;
#X connect 10 1 6 0;
#X connect 12 0 13 0;
#X connect 13 0 11 1;
#X restore 21 226 pd filter-on-socket;
#X connect 3 0 10 1;
#X connect 4 0 5 0;
#X connect 5 0 6 0;
#X connect 6 0 7 0;
#X connect 7 0 12 0;
#X connect 8 0 10 0;
#X connect 10 0 11 0;
#X connect 11 0 9 0;
#X connect 12 0 13 0;
#X connect 13 0 8 0;
